<svg xmlns="http://www.w3.org/2000/svg" xmlns:xlink="http://www.w3.org/1999/xlink" width="34" height="37" viewBox="0 0 34 37"><defs><linearGradient id="c" x1="81.964%" x2="28.905%" y1="86.97%" y2="19.06%"><stop offset="0%" stop-color="#F4F4F4"/><stop offset="100%" stop-color="#FFF"/></linearGradient><circle id="b" cx="15" cy="18" r="15"/><filter id="a" width="126.7%" height="126.7%" x="-6.7%" y="-6.7%" filterUnits="objectBoundingBox"><feOffset dx="2" dy="2" in="SourceAlpha" result="shadowOffsetOuter1"/><feGaussianBlur in="shadowOffsetOuter1" result="shadowBlurOuter1" stdDeviation="1"/><feColorMatrix in="shadowBlurOuter1" values="0 0 0 0 0 0 0 0 0 0 0 0 0 0 0 0 0 0 0.16 0"/></filter></defs><g fill="none" fill-rule="evenodd"><path fill="#5C5C5C" d="M12 1c0-.552.438-1 1.003-1h4.994A.999.999 0 0 1 19 1v4h-7V1zm11 6.5L25.5 5 28 7.5 25.5 10z"/><use fill="#000" filter="url(#a)" xlink:href="#b"/><use fill="url(#c)" xlink:href="#b"/><rect width="2" height="8" x="14" y="11" fill="#D0021B" rx="1"/><path fill="#D0021B" d="M23.401 20.36c.431.12.684.591.573 1.023a.806.806 0 0 1-.989.589L14.6 19.64c-.431-.12-.684-.591-.573-1.023a.806.806 0 0 1 .989-.589L23.4 20.36z"/></g></svg>